#!OML:ASF F:\VICON\USERDATA\INSTALL\rory3\rory3.ASF
:FULLY-SPECIFIED
:DEGREES
847
root -3.74283 19.7767 8.71561 15.0601 -11.844 -0.191566
lowerback -1.60536 0.592294 5.8971
upperback -5.45905 0.826249 -0.722547
thorax -4.67797 0.133052 -4.07621
lowerneck -16.7492 -2.75644 -7.12569
upperneck 22.6049 -2.6899 3.10227
head 10.1219 -1.50352 1.91887
rclavicle -7.65321e-015 -6.55989e-015
rhumerus -43.4526 14.6976 -89.3233
rradius 48.3107
rwrist 12.488
rhand -26.2795 -46.0722
rfingers 7.12502
rthumb 0.275764 -76.0517
lclavicle -7.65321e-015 -6.55989e-015
lhumerus -47.4176 -10.6851 81.1759
lradius 64.2659
lwrist -0.917907
lhand -33.3706 -43.1279
lfingers 7.12502
lthumb -6.57201 -13.2498
rfemur -25.2536 9.8761 20.4064
rtibia 22.5507
rfoot 9.71299 -5.0654
rtoes -13.5499
lfemur -71.191 42.4962 -4.50328
ltibia 140.672
lfoot -21.903 -9.0742
ltoes -7.22447
848
root -3.74783 19.7442 8.72004 14.919 -11.8441 0.0110338
lowerback -1.46737 0.439882 5.6312
upperback -5.32213 0.626401 -0.663761
thorax -4.63435 0.0508371 -3.86118
lowerneck -17.2617 -2.79486 -6.812
upperneck 22.7555 -2.66686 2.60471
head 10.261 -1.52235 1.69006
rclavicle -9.64106e-015 1.64991e-014
rhumerus -43.115 14.3697 -89.1524
rradius 48.0565
rwrist 12.2716
rhand -26.4326 -46.071
rfingers 7.12502
rthumb 0.127882 -76.0507
lclavicle -9.64106e-015 1.64991e-014
lhumerus -47.1516 -10.2021 81.1883
lradius 63.7006
lwrist -0.419336
lhand -33.2 -42.9456
lfingers 7.12502
lthumb -6.40725 -13.0625
rfemur -25.5009 10.3101 19.9721
rtibia 22.7645
rfoot 8.38661 -4.91903
rtoes -14.3347
lfemur -70.9295 40.8377 -4.87301
ltibia 140.44
lfoot -21.5458 -8.82299
ltoes -6.937
849
root -3.74849 19.6982 8.72404 14.811 -11.7458 0.0858045
lowerback -1.26916 0.292068 5.58788
upperback -5.22736 0.44083 -0.590009
thorax -4.66739 -0.0368971 -3.75642
lowerneck -16.6514 -2.60316 -7.34488
upperneck 22.002 -2.46611 3.31951
head 9.88043 -1.38619 2.05868
rclavicle 1.07716e-014 -3.18055e-015
rhumerus -42.8145 13.9528 -88.934
rradius 47.6964
rwrist 12.1727
rhand -26.4068 -46.31
rfingers 7.12502
rthumb 0.152882 -76.2897
lclavicle 1.07716e-014 -3.18055e-015
lhumerus -46.9552 -9.86081 81.3075
lradius 63.0621
lwrist 0.263498
lhand -33.2164 -42.8816
lfingers 7.12502
lthumb -6.42309 -12.9989
rfemur -25.7371 10.6585 19.6869
rtibia 22.9126
rfoot 7.29128 -4.6514
rtoes -15.618
lfemur -70.7611 39.3522 -5.1281
ltibia 140.168
lfoot -21.499 -8.46655
ltoes -7.48167
850
root -3.75136 19.6429 8.72734 14.757 -11.7279 0.198346
lowerback -0.970602 0.180141 5.41142
upperback -5.37113 0.312931 -0.505822
thorax -5.002 -0.104001 -3.56807
lowerneck -17.039 -2.59054 -6.96745
upperneck 22.6191 -2.35859 2.63057
head 10.156 -1.39108 1.76898
rclavicle 2.55935e-015 1.98785e-016
rhumerus -43.0362 13.3783 -88.7134
rradius 47.4758
rwrist 12.2721
rhand -26.558 -46.462
rfingers 7.12502
rthumb 0.00681341 -76.4417
lclavicle 2.55935e-015 1.98785e-016
lhumerus -47.0601 -9.58907 81.4011
lradius 62.3765
lwrist 0.244111
lhand -33.326 -42.6904
lfingers 7.12502
lthumb -6.52896 -12.811
rfemur -26.0662 11.1961 19.3087
rtibia 23.0686
rfoot 6.96209 -4.53697
rtoes -17.5365
lfemur -70.4894 38.0762 -5.39813
ltibia 139.796
lfoot -21.4386 -8.02928
ltoes -8.95174
851
root -3.7596 19.583 8.73153 14.7393 -11.8355 0.372369
lowerback -0.851238 0.105488 5.08954
upperback -5.5087 0.219416 -0.428576
thorax -5.22251 -0.143201 -3.30427
lowerneck -15.784 -2.33414 -7.67487
upperneck 21.7986 -2.10657 3.4619
head 9.62995 -1.23628 2.2136
rclavicle 3.86388e-015 -6.75868e-015
rhumerus -43.2391 12.8513 -88.4925
rradius 47.2336
rwrist 12.1882
rhand -26.8411 -46.156
rfingers 7.12502
rthumb -0.266587 -76.1356
lclavicle 3.86388e-015 -6.75868e-015
lhumerus -47.1265 -9.13474 81.2517
lradius 61.9467
lwrist -0.815856
lhand -33.2137 -42.4815
lfingers 7.12502
lthumb -6.42052 -12.5988
rfemur -26.4707 11.9112 18.8307
rtibia 23.2602
rfoot 7.36892 -5.17539
rtoes -17.184
lfemur -70.017 36.8481 -5.77434
ltibia 139.242
lfoot -21.174 -7.43195
ltoes -10.4243
852
root -3.76854 19.5124 8.74422 14.6751 -11.8412 0.601366
lowerback -0.911108 0.0414328 4.77388
upperback -5.49468 0.123932 -0.408736
thorax -5.17943 -0.174368 -3.10259
lowerneck -15.8639 -2.33279 -7.60532
upperneck 21.9871 -2.06819 3.25262
head 9.70689 -1.2389 2.13509
rclavicle 6.84565e-015 1.78906e-015
rhumerus -43.131 12.2399 -88.2176
rradius 46.7786
rwrist 11.9494
rhand -27.0022 -46.1026
rfingers 7.12502
rthumb -0.422226 -76.0819
lclavicle 6.84565e-015 1.78906e-015
lhumerus -46.9891 -9.08064 81.359
lradius 61.3969
lwrist -0.226972
lhand -33.0246 -42.4976
lfingers 7.12502
lthumb -6.23798 -12.6094
rfemur -26.6816 12.4161 18.3759
rtibia 23.2881
rfoot 7.5624 -5.38902
rtoes -16.8594
lfemur -69.5137 35.1421 -6.33401
ltibia 138.592
lfoot -20.7369 -6.68965
ltoes -10.8347
